# xmcd CD database file
#
# Track frame offsets:
#	150
#	18283
#	41186
#	57192
#	75933
#	95047
#	111070
#	132241
#
# Disc length: 1995 seconds
#
# Revision: 0
# Processed by: cddbd v1.5.1PL2 Copyright (c) Steve Scherf et al.
# Submitted via: CDex 1.51
#
DISCID=5e07c908
DTITLE=ダイソー - ボサノバ２　イタリアの曲
DYEAR=2006
DGENRE=ロック (一般)
TTITLE0=O Sole Mio
TTITLE1=Funiculi Funicula
TTITLE2=Sabta Lucia
TTITLE3=Cafe Florence
TTITLE4=Volare
TTITLE5=Mediterranean
TTITLE6=La Mia Chitarra Ed Io
TTITLE7=Tarantella Napolitana
EXTD=YEAR: 2006
EXTT0=
EXTT1=
EXTT2=
EXTT3=
EXTT4=
EXTT5=
EXTT6=
EXTT7=
PLAYORDER=
